<svg width="20" height="20" viewBox="0 0 20 20" fill="none" xmlns="http://www.w3.org/2000/svg">
<path d="M3.72997 10.7812V10.785C3.70892 10.8644 3.67243 10.9389 3.62258 11.0041C3.57273 11.0694 3.5105 11.1242 3.43945 11.1654C3.3684 11.2067 3.28993 11.2335 3.20851 11.2443C3.1271 11.2552 3.04434 11.2499 2.96497 11.2287C2.42622 11.0862 2.52122 10.465 2.52122 10.465L2.54372 10.3875C2.54372 10.3875 2.57622 10.2825 2.60247 10.2063C2.92325 9.30686 3.39547 8.46895 3.99872 7.72875C5.11997 6.36125 7.00622 5 9.99997 5C12.9937 5 14.88 6.36125 16.0025 7.72875C16.6057 8.46895 17.0779 9.30686 17.3987 10.2063C17.4256 10.2836 17.4506 10.3615 17.4737 10.44L17.4775 10.4562V10.4613L17.4787 10.4638C17.5184 10.6228 17.4939 10.7911 17.4106 10.9324C17.3274 11.0736 17.1919 11.1764 17.0335 11.2187C16.8751 11.261 16.7065 11.2394 16.5639 11.1585C16.4213 11.0776 16.3162 10.9439 16.2712 10.7862L16.27 10.7812L16.26 10.75C16.1891 10.5287 16.1056 10.3117 16.01 10.1C15.7552 9.53347 15.4274 9.00272 15.035 8.52125C14.1075 7.39 12.555 6.25 9.99997 6.25C7.44497 6.25 5.89372 7.39 4.96497 8.52125C4.4556 9.14685 4.05617 9.85441 3.78372 10.6138C3.76828 10.6589 3.75369 10.7043 3.73997 10.75L3.72997 10.7812ZM6.87497 11.875C6.87497 11.0462 7.20421 10.2513 7.79026 9.66529C8.37632 9.07924 9.17117 8.75 9.99997 8.75C10.8288 8.75 11.6236 9.07924 12.2097 9.66529C12.7957 10.2513 13.125 11.0462 13.125 11.875C13.125 12.7038 12.7957 13.4987 12.2097 14.0847C11.6236 14.6708 10.8288 15 9.99997 15C9.17117 15 8.37632 14.6708 7.79026 14.0847C7.20421 13.4987 6.87497 12.7038 6.87497 11.875Z" fill="#6C7171"/>
<path d="M3.72497 10.7812V10.785C3.70392 10.8644 3.66743 10.9389 3.61758 11.0041C3.56773 11.0694 3.5055 11.1242 3.43445 11.1654C3.3634 11.2067 3.28493 11.2335 3.20351 11.2443C3.1221 11.2552 3.03934 11.2499 2.95997 11.2287C2.42122 11.0862 2.51622 10.465 2.51622 10.465L2.53872 10.3875C2.53872 10.3875 2.57122 10.2825 2.59747 10.2063C2.91825 9.30686 3.39047 8.46895 3.99372 7.72875C5.11497 6.36125 7.00122 5 9.99497 5C12.9887 5 14.875 6.36125 15.9975 7.72875C16.6007 8.46895 17.0729 9.30686 17.3937 10.2063C17.4206 10.2836 17.4456 10.3615 17.4687 10.44L17.4725 10.4562V10.4613L17.4737 10.4638C17.5134 10.6228 17.4889 10.7911 17.4056 10.9324C17.3224 11.0736 17.1869 11.1764 17.0285 11.2187C16.8701 11.261 16.7015 11.2394 16.5589 11.1585C16.4163 11.0776 16.3112 10.9439 16.2662 10.7862L16.265 10.7812L16.255 10.75C16.1841 10.5287 16.1006 10.3117 16.005 10.1C15.7502 9.53347 15.4224 9.00272 15.03 8.52125C14.1025 7.39 12.55 6.25 9.99497 6.25C7.43997 6.25 5.88872 7.39 4.95997 8.52125C4.4506 9.14685 4.05117 9.85441 3.77872 10.6138C3.76328 10.6589 3.74869 10.7043 3.73497 10.75L3.72497 10.7812ZM6.86997 11.875C6.86997 11.0462 7.19921 10.2513 7.78526 9.66529C8.37132 9.07924 9.16617 8.75 9.99497 8.75C10.8238 8.75 11.6186 9.07924 12.2047 9.66529C12.7907 10.2513 13.12 11.0462 13.12 11.875C13.12 12.7038 12.7907 13.4987 12.2047 14.0847C11.6186 14.6708 10.8238 15 9.99497 15C9.16617 15 8.37132 14.6708 7.78526 14.0847C7.19921 13.4987 6.86997 12.7038 6.86997 11.875Z" fill="#6C7171"/>
</svg>
