<svg width="20" height="20" viewBox="0 0 20 20" fill="none" xmlns="http://www.w3.org/2000/svg">
    <path d="M1.84998 1.85C1.74413 1.95582 1.67978 2.09612 1.66861 2.24538C1.65745 2.39463 1.70022 2.54294 1.78915 2.66333L1.84998 2.73333L5.21165 6.09583C3.57251 7.24469 2.40239 8.94587 1.91581 10.8875C1.8783 11.0473 1.90518 11.2155 1.99065 11.3557C2.07612 11.4959 2.21332 11.5968 2.37259 11.6366C2.53187 11.6765 2.70042 11.6521 2.84183 11.5686C2.98324 11.4852 3.08615 11.3495 3.12831 11.1908C3.56073 9.4675 4.62573 7.96996 6.11165 6.99583L7.61998 8.50417C7.01748 9.13374 6.68547 9.97423 6.69508 10.8456C6.70469 11.717 7.05516 12.5499 7.6714 13.1661C8.28764 13.7822 9.12067 14.1325 9.99204 14.142C10.8634 14.1514 11.7038 13.8193 12.3333 13.2167L17.2658 18.15C17.3773 18.2618 17.5271 18.3273 17.6849 18.3332C17.8427 18.3392 17.9969 18.2851 18.1165 18.182C18.2361 18.0789 18.3122 17.9343 18.3296 17.7773C18.3469 17.6203 18.3042 17.4626 18.21 17.3358L18.1491 17.2658L13.055 12.1708L13.0558 12.1692L7.26415 6.38083L7.26581 6.37917L6.32165 5.4375L2.73331 1.85C2.61613 1.73296 2.45727 1.66722 2.29165 1.66722C2.12602 1.66722 1.96717 1.73296 1.84998 1.85ZM9.99998 4.58333C9.16665 4.58333 8.35831 4.70667 7.59248 4.9375L8.62331 5.9675C10.4063 5.61446 12.2567 5.96007 13.7921 6.93286C15.3274 7.90564 16.4302 9.43122 16.8725 11.1942C16.9157 11.3516 17.0187 11.4859 17.1596 11.5683C17.3005 11.6508 17.4681 11.6748 17.6265 11.6353C17.7849 11.5958 17.9216 11.4958 18.0072 11.3569C18.0929 11.2179 18.1208 11.0509 18.085 10.8917C17.6331 9.08955 16.5921 7.49005 15.1273 6.34714C13.6625 5.20424 11.8579 4.58345 9.99998 4.58333ZM10.1625 7.50833L13.33 10.675C13.289 9.84825 12.9421 9.06626 12.3567 8.48102C11.7713 7.89578 10.9892 7.54909 10.1625 7.50833Z"
          fill="#6C7171"/>
</svg>
