<svg width="20" height="20" viewBox="0 0 20 20" fill="none" xmlns="http://www.w3.org/2000/svg">
<path d="M17.0833 7.625H15.8333V6.04165C15.8333 2.98596 13.2166 0.5 10 0.5C6.78344 0.5 4.16668 2.98596 4.16668 6.04165V7.625H2.91668C2.68637 7.625 2.5 7.80205 2.5 8.02085V17.9167C2.5 18.7899 3.24746 19.5 4.16668 19.5H15.8334C16.7525 19.5 17.5 18.7899 17.5 17.9167V8.02085C17.5 7.80205 17.3136 7.625 17.0833 7.625ZM11.2476 15.8938C11.2606 16.0055 11.2228 16.1176 11.1438 16.2015C11.0649 16.2854 10.9518 16.3333 10.8334 16.3333H9.16668C9.04828 16.3333 8.93516 16.2854 8.85621 16.2015C8.77727 16.1177 8.73941 16.0056 8.75246 15.8938L9.01531 13.6483C8.58848 13.3534 8.33336 12.8868 8.33336 12.375C8.33336 11.5018 9.08082 10.7917 10 10.7917C10.9193 10.7917 11.6667 11.5017 11.6667 12.375C11.6667 12.8868 11.4116 13.3534 10.9848 13.6483L11.2476 15.8938ZM13.3333 7.625H6.66668V6.04165C6.66668 4.29558 8.16203 2.875 10 2.875C11.838 2.875 13.3333 4.29558 13.3333 6.04165V7.625Z" fill="#3C78FF"/>
</svg>
