<svg width="20" height="20" viewBox="0 0 20 20" fill="none" xmlns="http://www.w3.org/2000/svg">
<path d="M16.4462 17.5976C16.407 15.0956 16.6685 12.8287 15.2757 11.1815C13.891 9.54442 12.0144 8.64286 9.99105 8.64286C7.96765 8.64286 6.09106 9.54442 4.70637 11.1815C3.3149 12.8269 3.59463 15.0987 3.55371 17.5976C4.34053 17.9898 6.53391 19.5 9.99105 19.5C13.7294 19.5 15.7165 17.9906 16.4462 17.5976Z" fill="#3C78FF"/>
<path d="M9.99106 7.96429C12.0626 7.96429 13.7419 6.29335 13.7419 4.23214C13.7419 2.17094 12.0626 0.5 9.99106 0.5C7.91955 0.5 6.24025 2.17094 6.24025 4.23214C6.24025 6.29335 7.91955 7.96429 9.99106 7.96429Z" fill="#3C78FF"/>
</svg>
