<svg width="14" height="14" viewBox="0 0 14 14" fill="none" xmlns="http://www.w3.org/2000/svg">
<g clip-path="url(#clip0_1446_545)">
<path d="M6.99947 12.25C10.8659 12.25 13.9995 9.7043 13.9995 6.5625C13.9995 3.4207 10.8659 0.875 6.99947 0.875C3.13306 0.875 -0.000532514 3.4207 -0.000532514 6.5625C-0.000532514 7.7957 0.483452 8.93594 1.30376 9.86836C1.25181 10.5383 0.992046 11.1344 0.718608 11.5883C0.568217 11.8398 0.415092 12.0422 0.302983 12.1789C0.245561 12.2473 0.201811 12.2992 0.168999 12.3348C0.152592 12.3512 0.141655 12.3648 0.133452 12.373L0.125249 12.3813C-0.000532513 12.507 -0.0360794 12.693 0.03228 12.857C0.100639 13.0211 0.259233 13.1277 0.436967 13.1277C1.22173 13.1277 2.01197 12.8844 2.66822 12.6C3.29439 12.3266 3.82759 12.0012 4.15298 11.7633C5.02251 12.0777 5.98501 12.2527 6.99947 12.2527V12.25ZM3.49947 7.4375C3.01548 7.4375 2.62447 7.04648 2.62447 6.5625C2.62447 6.07852 3.01548 5.6875 3.49947 5.6875C3.98345 5.6875 4.37447 6.07852 4.37447 6.5625C4.37447 7.04648 3.98345 7.4375 3.49947 7.4375ZM6.99947 7.4375C6.51548 7.4375 6.12447 7.04648 6.12447 6.5625C6.12447 6.07852 6.51548 5.6875 6.99947 5.6875C7.48345 5.6875 7.87447 6.07852 7.87447 6.5625C7.87447 7.04648 7.48345 7.4375 6.99947 7.4375ZM11.3745 6.5625C11.3745 7.04648 10.9835 7.4375 10.4995 7.4375C10.0155 7.4375 9.62447 7.04648 9.62447 6.5625C9.62447 6.07852 10.0155 5.6875 10.4995 5.6875C10.9835 5.6875 11.3745 6.07852 11.3745 6.5625Z" fill="black"/>
</g>
<defs>
<clipPath id="clip0_1446_545">
<rect width="14" height="14" fill="white"/>
</clipPath>
</defs>
</svg>
