<svg width="38" height="34" viewBox="0 0 38 34" fill="none" xmlns="http://www.w3.org/2000/svg">
<path fill-rule="evenodd" clip-rule="evenodd" d="M16.9545 17.4325L4.20549 13.749C1.56417 12.9859 0.243509 12.6043 0.237251 11.8577C0.230993 11.111 1.54511 10.712 4.17334 9.91394L34.4121 0.732366C36.0875 0.223676 36.9251 -0.0306685 37.351 0.419569C37.7768 0.869803 37.4762 1.69187 36.8748 3.33601L36.8748 3.33604L26.8413 30.7684L26.8413 30.7684C26.0724 32.8704 25.688 33.9215 24.995 33.9261C24.3021 33.9307 23.9001 32.8848 23.0961 30.7932L23.0961 30.7931L18.471 18.7604L27.7201 10.4165C28.1299 10.0469 28.1618 9.41457 27.7914 9.00421C27.4211 8.59386 26.7887 8.56083 26.379 8.93044L16.9545 17.4325Z" fill="#6A4DFF"/>
</svg>
