<svg width="43" height="46" viewBox="0 0 43 46" fill="none" xmlns="http://www.w3.org/2000/svg">
<g clip-path="url(#clip0_1305_1666)">
<path fill-rule="evenodd" clip-rule="evenodd" d="M17.4294 20.6109C17.6494 20.6283 17.8686 20.5686 18.0493 20.442C18.2301 20.3155 18.3611 20.1299 18.42 19.9173C18.8159 18.4657 19.0688 16.9788 19.175 15.478C19.315 13.376 19.1439 10.7763 17.8075 8.86775C16.8277 7.4685 15.3323 6.51577 13.65 6.21915C11.9678 5.92253 10.2367 6.30632 8.83742 7.28608C7.43817 8.26585 6.48544 9.76133 6.18882 11.4435C5.8922 13.1258 6.27599 14.8569 7.25575 16.2562C8.59213 18.1647 10.9765 19.2146 13.0001 19.8027C14.4464 20.2161 15.9297 20.4869 17.4288 20.6113L17.4294 20.6109Z" fill="#004EFF"/>
</g>
<g clip-path="url(#clip1_1305_1666)">
<path fill-rule="evenodd" clip-rule="evenodd" d="M24.124 19.918C24.1828 20.1306 24.3139 20.3162 24.4946 20.4427C24.6754 20.5693 24.8945 20.629 25.1145 20.6116C26.614 20.4872 28.0977 20.2163 29.5443 19.8027C31.5675 19.2154 33.9518 18.1654 35.2882 16.2569C36.2679 14.8576 36.6517 13.1265 36.3551 11.4443C36.0585 9.76205 35.1058 8.26656 33.7065 7.2868C32.3073 6.30704 30.5761 5.92325 28.8939 6.21987C27.2117 6.51649 25.7162 7.46922 24.7364 8.86847C23.4001 10.777 23.2289 13.3767 23.3685 15.4793C23.4747 16.9798 23.7275 18.4663 24.1233 19.9175L24.124 19.918Z" fill="#004EFF"/>
</g>
<g clip-path="url(#clip2_1305_1666)">
<path fill-rule="evenodd" clip-rule="evenodd" d="M17.4294 25.8149C17.6494 25.7975 17.8686 25.8572 18.0493 25.9838C18.2301 26.1103 18.3611 26.2958 18.42 26.5085C18.8159 27.9601 19.0688 29.447 19.175 30.9478C19.315 33.0498 19.1439 35.6495 17.8075 37.558C16.8277 38.9573 15.3323 39.91 13.65 40.2066C11.9678 40.5032 10.2367 40.1195 8.83742 39.1397C7.43817 38.1599 6.48544 36.6644 6.18882 34.9822C5.8922 33.3 6.27599 31.5689 7.25575 30.1696C8.59213 28.2611 10.9765 27.2111 13.0001 26.6231C14.4464 26.2097 15.9297 25.9389 17.4288 25.8145L17.4294 25.8149Z" fill="#004EFF"/>
</g>
<g clip-path="url(#clip3_1305_1666)">
<path fill-rule="evenodd" clip-rule="evenodd" d="M24.1259 26.5088C24.1848 26.2961 24.3158 26.1106 24.4966 25.984C24.6773 25.8575 24.8965 25.7978 25.1165 25.8152C26.6159 25.9396 28.0996 26.2105 29.5463 26.624C31.5694 27.2114 33.9538 28.2613 35.2901 30.1699C36.2699 31.5691 36.6537 33.3003 36.3571 34.9825C36.0604 36.6647 35.1077 38.1602 33.7085 39.14C32.3092 40.1197 30.5781 40.5035 28.8959 40.2069C27.2136 39.9103 25.7182 38.9575 24.7384 37.5583C23.402 35.6497 23.2309 33.0501 23.3704 30.9474C23.4766 29.4469 23.7294 27.9605 24.1252 26.5092L24.1259 26.5088Z" fill="#004EFF"/>
</g>
<defs>
<clipPath id="clip0_1305_1666">
<rect width="19.322" height="19.322" fill="white" transform="matrix(0.819152 -0.573576 -0.573576 -0.819152 11.082 27.3364)"/>
</clipPath>
<clipPath id="clip1_1305_1666">
<rect width="19.322" height="19.322" fill="white" transform="matrix(0.819152 0.573576 0.573576 -0.819152 15.6387 16.2539)"/>
</clipPath>
<clipPath id="clip2_1305_1666">
<rect width="19.322" height="19.322" fill="white" transform="translate(11.082 19.0898) rotate(35)"/>
</clipPath>
<clipPath id="clip3_1305_1666">
<rect width="19.322" height="19.322" fill="white" transform="translate(15.6387 30.1724) rotate(-35)"/>
</clipPath>
</defs>
</svg>
